<?xml version="1.0" encoding="utf-8" standalone="yes"?><svg version="1.1" baseProfile="full" xmlns="http://www.w3.org/2000/svg" xmlns:xlink="http://www.w3.org/1999/xlink" xmlns:ev="http://www.w3.org/2001/xml-events"  width="1920px" height = "1080px"><title>blue gradient violet linear dark violet dark blue 1920x1080 #340e41 #180e41 285°</title><desc>blue gradient violet linear dark violet dark blue 1920x1080 #340e41 #180e41 285°</desc><style type="text/css" ><![CDATA[.x{font:20px verdana;fill:#fff;stroke:#555;stroke-width:20px;opacity:0.35;}.o{stroke:none;opacity:0.01;}]]></style><defs><linearGradient id="p1" x1="57.536071037125%" y1="100%" x2="42.463928962875%" y2="0%"><stop offset="0%" style="stop-color:#340e41;stop-opacity:1" /><stop offset="100%" style="stop-color:#180e41;stop-opacity:1" /></linearGradient></defs><rect width="1920" height="1080" x="0" y="0" fill="#340e41" /><rect width="1920" height="1080" x="0" y="0" fill="url(#p1)" /><path class="x o" d="M5 5h2v1H6v1h1v1H5zM4 3h4v1h1v5H8v1H4V9H3V4h1v5h4V4H4zm7 1h1v2h1V4h1v2h-1v1h1v2h-1V7h-1v2h-1V7h1V6h-1zm4 0h5v5h-1V5h-1v4h-1V5h-1v4h-1zm6 0h3l-1 1h-1v3h1V5l1-1v5h-2v2h-1zm4-2h1v6h1v1h-2zm3 2h3l-1 1h-1v1h1V5l1-1v3h-2v1h2v1h-3V4zm4 4h1v1h-1zm2-4h3v1h-2v3h2v1h-3zm4 0h3v5h-3l1-1h1V5h-1v3l-1 1zm4 0h5v5h-1V5h-1v4h-1V5h-1v4h-1z"/><text x="4" y="1074" class="x o"></text></svg>